<svg fill="none" height="275" viewBox="0 0 465 275" width="465" xmlns="http://www.w3.org/2000/svg"><path d="m102.312 153v-44.8h19.392c4.011 0 7.467.661 10.368 1.984 2.901 1.28 5.141 3.136 6.72 5.568s2.368 5.333 2.368 8.704c0 3.328-.789 6.208-2.368 8.64s-3.819 4.309-6.72 5.632c-2.901 1.28-6.357 1.92-10.368 1.92h-13.632l4.608-4.672v17.024zm10.368-15.872-4.608-4.928h13.056c3.2 0 5.589-.683 7.168-2.048s2.368-3.264 2.368-5.696c0-2.475-.789-4.395-2.368-5.76s-3.968-2.048-7.168-2.048h-13.056l4.608-4.928zm36.074 15.872v-44.8h19.392c4.011 0 7.467.661 10.368 1.984 2.901 1.28 5.141 3.136 6.72 5.568s2.368 5.333 2.368 8.704c0 3.328-.789 6.208-2.368 8.64-1.579 2.389-3.819 4.224-6.72 5.504s-6.357 1.92-10.368 1.92h-13.632l4.608-4.544v17.024zm28.48 0-11.2-16.256h11.072l11.328 16.256zm-18.112-15.872-4.608-4.864h13.056c3.2 0 5.589-.683 7.168-2.048 1.579-1.408 2.368-3.328 2.368-5.76 0-2.475-.789-4.395-2.368-5.76s-3.968-2.048-7.168-2.048h-13.056l4.608-4.928zm46.423-10.88h21.568v8.064h-21.568zm.768 18.432h24.384v8.32h-34.688v-44.8h33.856v8.32h-23.552zm47.545 9.088c-3.584 0-7.019-.469-10.304-1.408-3.285-.981-5.931-2.24-7.936-3.776l3.52-7.808c1.92 1.365 4.181 2.496 6.784 3.392 2.645.853 5.312 1.28 8 1.28 2.048 0 3.691-.192 4.928-.576 1.28-.427 2.219-1.003 2.816-1.728s.896-1.557.896-2.496c0-1.195-.469-2.133-1.408-2.816-.939-.725-2.176-1.301-3.712-1.728-1.536-.469-3.243-.896-5.12-1.28-1.835-.427-3.691-.939-5.568-1.536-1.835-.597-3.52-1.365-5.056-2.304s-2.795-2.176-3.776-3.712c-.939-1.536-1.408-3.499-1.408-5.888 0-2.56.683-4.885 2.048-6.976 1.408-2.133 3.499-3.819 6.272-5.056 2.816-1.28 6.336-1.92 10.56-1.92 2.816 0 5.589.341 8.32 1.024 2.731.64 5.141 1.621 7.232 2.944l-3.2 7.872c-2.091-1.195-4.181-2.069-6.272-2.624-2.091-.597-4.139-.896-6.144-.896s-3.648.235-4.928.704-2.197 1.088-2.752 1.856c-.555.725-.832 1.579-.832 2.56 0 1.152.469 2.091 1.408 2.816.939.683 2.176 1.237 3.712 1.664s3.221.853 5.056 1.28c1.877.427 3.733.917 5.568 1.472 1.877.555 3.584 1.301 5.12 2.24s2.773 2.176 3.712 3.712c.981 1.536 1.472 3.477 1.472 5.824 0 2.517-.704 4.821-2.112 6.912s-3.52 3.776-6.336 5.056c-2.773 1.28-6.293 1.92-10.56 1.92zm47.725 0c-3.456 0-6.678-.555-9.664-1.664-2.944-1.152-5.504-2.773-7.68-4.864s-3.883-4.544-5.12-7.36c-1.195-2.816-1.792-5.909-1.792-9.28s.597-6.464 1.792-9.28c1.237-2.816 2.944-5.269 5.12-7.36 2.218-2.091 4.8-3.691 7.744-4.8 2.944-1.152 6.165-1.728 9.664-1.728 3.882 0 7.381.683 10.496 2.048 3.157 1.323 5.802 3.285 7.936 5.888l-6.656 6.144c-1.536-1.749-3.243-3.051-5.12-3.904-1.878-.896-3.926-1.344-6.144-1.344-2.091 0-4.011.341-5.76 1.024-1.75.683-3.264 1.664-4.544 2.944s-2.283 2.795-3.008 4.544c-.683 1.749-1.024 3.691-1.024 5.824s.341 4.075 1.024 5.824c.725 1.749 1.728 3.264 3.008 4.544s2.794 2.261 4.544 2.944c1.749.683 3.669 1.024 5.76 1.024 2.218 0 4.266-.427 6.144-1.28 1.877-.896 3.584-2.24 5.12-4.032l6.656 6.144c-2.134 2.603-4.779 4.587-7.936 5.952-3.115 1.365-6.635 2.048-10.56 2.048zm56.409-45.568h10.368v44.8h-10.368zm-20.352 44.8h-10.368v-44.8h10.368zm21.12-18.368h-21.888v-8.768h21.888zm29.928-8.384h21.568v8.064h-21.568zm.768 18.432h24.384v8.32h-34.688v-44.8h33.856v8.32h-23.552zm32.825 8.32v-44.8h19.392c4.011 0 7.467.661 10.368 1.984 2.901 1.28 5.141 3.136 6.72 5.568s2.368 5.333 2.368 8.704c0 3.328-.789 6.208-2.368 8.64-1.579 2.389-3.819 4.224-6.72 5.504s-6.357 1.92-10.368 1.92h-13.632l4.608-4.544v17.024zm28.48 0-11.2-16.256h11.072l11.328 16.256zm-18.112-15.872-4.608-4.864h13.056c3.2 0 5.589-.683 7.168-2.048 1.579-1.408 2.368-3.328 2.368-5.76 0-2.475-.789-4.395-2.368-5.76s-3.968-2.048-7.168-2.048h-13.056l4.608-4.928z" fill="#000"/><path d="m102.25 201v-35h15.7c4.033 0 7.133.817 9.3 2.45 2.167 1.6 3.25 3.8 3.25 6.6 0 1.9-.433 3.5-1.3 4.8-.833 1.3-1.967 2.3-3.4 3s-2.983 1.05-4.65 1.05l.9-1.5c2 0 3.767.35 5.3 1.05s2.75 1.733 3.65 3.1c.9 1.333 1.35 3 1.35 5 0 3-1.133 5.333-3.4 7-2.233 1.633-5.567 2.45-10 2.45zm5-4.05h11.5c2.767 0 4.883-.467 6.35-1.4s2.2-2.4 2.2-4.4c0-2.033-.733-3.517-2.2-4.45s-3.583-1.4-6.35-1.4h-11.95v-4.05h10.7c2.533 0 4.5-.467 5.9-1.4s2.1-2.333 2.1-4.2-.7-3.267-2.1-4.2-3.367-1.4-5.9-1.4h-10.25zm28.042 4.05 15.85-35h4.95l15.9 35h-5.25l-14.15-32.2h2l-14.15 32.2zm6.75-8.75 1.35-4h19.7l1.45 4zm49.438 9.15c-4.6 0-8.216-1.317-10.85-3.95-2.633-2.633-3.95-6.483-3.95-11.55v-19.9h5v19.7c0 3.9.85 6.75 2.55 8.55 1.734 1.8 4.167 2.7 7.3 2.7 3.167 0 5.6-.9 7.3-2.7 1.734-1.8 2.6-4.65 2.6-8.55v-19.7h4.85v19.9c0 5.067-1.316 8.917-3.95 11.55-2.6 2.633-6.216 3.95-10.85 3.95zm29.951-8.85-.25-6.1 19.85-20.45h5.7l-15.35 16.2-2.8 3.1zm-4.4 8.45v-35h5v35zm24.8 0-14.35-16.7 3.35-3.7 16.85 20.4zm26.168.4c-2.666 0-5.15-.45-7.45-1.35-2.266-.9-4.233-2.15-5.9-3.75-1.666-1.633-2.966-3.533-3.9-5.7-.933-2.167-1.4-4.533-1.4-7.1s.467-4.933 1.4-7.1c.934-2.167 2.234-4.05 3.9-5.65 1.667-1.633 3.634-2.9 5.9-3.8 2.267-.9 4.75-1.35 7.45-1.35 2.667 0 5.117.45 7.35 1.35 2.267.867 4.234 2.117 5.9 3.75 1.7 1.6 3 3.483 3.9 5.65.934 2.167 1.4 4.55 1.4 7.15s-.466 4.983-1.4 7.15c-.9 2.167-2.2 4.067-3.9 5.7-1.666 1.6-3.633 2.85-5.9 3.75-2.233.867-4.683 1.3-7.35 1.3zm0-4.45c1.934 0 3.717-.333 5.35-1 1.667-.667 3.1-1.6 4.3-2.8 1.234-1.233 2.184-2.667 2.85-4.3.7-1.633 1.05-3.417 1.05-5.35s-.35-3.717-1.05-5.35c-.666-1.633-1.616-3.05-2.85-4.25-1.2-1.233-2.633-2.183-4.3-2.85-1.633-.667-3.416-1-5.35-1-1.966 0-3.783.333-5.45 1-1.633.667-3.066 1.617-4.3 2.85-1.233 1.2-2.2 2.617-2.9 4.25-.666 1.633-1 3.417-1 5.35s.334 3.717 1 5.35c.7 1.633 1.667 3.067 2.9 4.3 1.234 1.2 2.667 2.133 4.3 2.8 1.667.667 3.484 1 5.45 1zm26.692 4.05v-35h4.1l23.15 28.75h-2.15v-28.75h5v35h-4.1l-23.15-28.75h2.15v28.75zm37.977 0v-3.4l23.55-29.2.55 1.95h-23.75v-4.35h28.25v3.4l-23.45 29.2-.6-1.95h24.7v4.35zm41.011-19.9h18v4.25h-18zm.45 15.55h20.4v4.35h-25.4v-35h24.7v4.35h-19.7zm28.996 4.35v-35h13.65c3.067 0 5.683.483 7.85 1.45s3.833 2.367 5 4.2 1.75 4.017 1.75 6.55-.583 4.717-1.75 6.55c-1.167 1.8-2.833 3.2-5 4.2-2.167.967-4.783 1.45-7.85 1.45h-10.9l2.25-2.35v12.95zm5-12.45-2.25-2.5h10.75c3.2 0 5.617-.683 7.25-2.05 1.667-1.367 2.5-3.3 2.5-5.8s-.833-4.433-2.5-5.8c-1.633-1.367-4.05-2.05-7.25-2.05h-10.75l2.25-2.5zm36.923 12.45v-30.65h-12v-4.35h28.95v4.35h-12v30.65z" fill="#000"/><g fill="#f3b329"><path d="m0 63h27v91h-27z"/><path d="m159 43h27v43h-27z"/><path d="m109.119 0h27v126h-27z" transform="matrix(.5 .8660254 -.8660254 .5 54.5595 -94.499826)"/><path d="m185.589 43.3529h27v86.7058h-27z" transform="matrix(-.5 .8660254 -.8660254 -.5 315.928213 -95.695439)"/></g><path d="m49 95h27v106h-27z" fill="#000"/><path d="m76 73v35l-27 .5v-20z" fill="#000"/><path d="m76 174h27v76h-27z" fill="#000" transform="matrix(0 1 -1 0 250 98)"/></svg>